<mxfile host="Electron" agent="Mozilla/5.0 (Windows NT 10.0; Win64; x64) AppleWebKit/537.36 (KHTML, like Gecko) draw.io/28.1.2 Chrome/138.0.7204.243 Electron/37.4.0 Safari/537.36" version="28.1.2">
  <diagram name="Page-1" id="dzBPu5yxcSlVgdgyU3zj">
    <mxGraphModel dx="1042" dy="626" grid="1" gridSize="10" guides="1" tooltips="1" connect="1" arrows="1" fold="1" page="1" pageScale="1" pageWidth="850" pageHeight="1100" math="0" shadow="0">
      <root>
        <mxCell id="0" />
        <mxCell id="1" parent="0" />
        <mxCell id="Etnpo339rv5FMcLpuCDI-3" value="" style="edgeStyle=orthogonalEdgeStyle;rounded=0;orthogonalLoop=1;jettySize=auto;html=1;" parent="1" source="Etnpo339rv5FMcLpuCDI-1" target="Etnpo339rv5FMcLpuCDI-2" edge="1">
          <mxGeometry relative="1" as="geometry" />
        </mxCell>
        <mxCell id="Etnpo339rv5FMcLpuCDI-1" value="Bắt đầu" style="ellipse;whiteSpace=wrap;html=1;" parent="1" vertex="1">
          <mxGeometry x="350" y="10" width="130" height="80" as="geometry" />
        </mxCell>
        <mxCell id="Etnpo339rv5FMcLpuCDI-5" value="" style="edgeStyle=orthogonalEdgeStyle;rounded=0;orthogonalLoop=1;jettySize=auto;html=1;" parent="1" source="Etnpo339rv5FMcLpuCDI-2" target="Etnpo339rv5FMcLpuCDI-4" edge="1">
          <mxGeometry relative="1" as="geometry" />
        </mxCell>
        <mxCell id="Etnpo339rv5FMcLpuCDI-2" value="Nhét tiền" style="shape=parallelogram;perimeter=parallelogramPerimeter;whiteSpace=wrap;html=1;fixedSize=1;" parent="1" vertex="1">
          <mxGeometry x="355" y="120" width="120" height="60" as="geometry" />
        </mxCell>
        <mxCell id="Etnpo339rv5FMcLpuCDI-7" value="" style="edgeStyle=orthogonalEdgeStyle;rounded=0;orthogonalLoop=1;jettySize=auto;html=1;" parent="1" source="Etnpo339rv5FMcLpuCDI-4" target="Etnpo339rv5FMcLpuCDI-6" edge="1">
          <mxGeometry relative="1" as="geometry" />
        </mxCell>
        <mxCell id="Etnpo339rv5FMcLpuCDI-4" value="Hiển thị tổng số tiền" style="shape=parallelogram;perimeter=parallelogramPerimeter;whiteSpace=wrap;html=1;fixedSize=1;" parent="1" vertex="1">
          <mxGeometry x="350" y="220" width="130" height="60" as="geometry" />
        </mxCell>
        <mxCell id="Etnpo339rv5FMcLpuCDI-9" value="" style="edgeStyle=orthogonalEdgeStyle;rounded=0;orthogonalLoop=1;jettySize=auto;html=1;" parent="1" source="Etnpo339rv5FMcLpuCDI-6" target="Etnpo339rv5FMcLpuCDI-8" edge="1">
          <mxGeometry relative="1" as="geometry" />
        </mxCell>
        <mxCell id="Etnpo339rv5FMcLpuCDI-6" value="Chọn nước ngọt" style="shape=parallelogram;perimeter=parallelogramPerimeter;whiteSpace=wrap;html=1;fixedSize=1;" parent="1" vertex="1">
          <mxGeometry x="355" y="330" width="120" height="60" as="geometry" />
        </mxCell>
        <mxCell id="Etnpo339rv5FMcLpuCDI-15" value="" style="edgeStyle=orthogonalEdgeStyle;rounded=0;orthogonalLoop=1;jettySize=auto;html=1;" parent="1" source="Etnpo339rv5FMcLpuCDI-8" target="Etnpo339rv5FMcLpuCDI-14" edge="1">
          <mxGeometry relative="1" as="geometry" />
        </mxCell>
        <mxCell id="Etnpo339rv5FMcLpuCDI-16" value="Còn hàng" style="edgeLabel;html=1;align=center;verticalAlign=middle;resizable=0;points=[];" parent="Etnpo339rv5FMcLpuCDI-15" vertex="1" connectable="0">
          <mxGeometry x="-0.2156" y="-2" relative="1" as="geometry">
            <mxPoint as="offset" />
          </mxGeometry>
        </mxCell>
        <mxCell id="fJU-cxcKnrM6-4Va9FaJ-14" style="edgeStyle=orthogonalEdgeStyle;rounded=0;orthogonalLoop=1;jettySize=auto;html=1;exitX=1;exitY=0.5;exitDx=0;exitDy=0;entryX=1;entryY=0.5;entryDx=0;entryDy=0;" edge="1" parent="1" source="Etnpo339rv5FMcLpuCDI-8" target="Etnpo339rv5FMcLpuCDI-6">
          <mxGeometry relative="1" as="geometry">
            <Array as="points">
              <mxPoint x="560" y="490" />
              <mxPoint x="560" y="360" />
            </Array>
          </mxGeometry>
        </mxCell>
        <mxCell id="fJU-cxcKnrM6-4Va9FaJ-16" value="Hết hàng" style="edgeLabel;html=1;align=center;verticalAlign=middle;resizable=0;points=[];" vertex="1" connectable="0" parent="fJU-cxcKnrM6-4Va9FaJ-14">
          <mxGeometry x="0.0362" relative="1" as="geometry">
            <mxPoint y="-4" as="offset" />
          </mxGeometry>
        </mxCell>
        <mxCell id="Etnpo339rv5FMcLpuCDI-8" value="Kiểm tra" style="rhombus;whiteSpace=wrap;html=1;" parent="1" vertex="1">
          <mxGeometry x="375" y="450" width="80" height="80" as="geometry" />
        </mxCell>
        <mxCell id="Etnpo339rv5FMcLpuCDI-18" value="" style="edgeStyle=orthogonalEdgeStyle;rounded=0;orthogonalLoop=1;jettySize=auto;html=1;exitX=0;exitY=0.5;exitDx=0;exitDy=0;" parent="1" source="Etnpo339rv5FMcLpuCDI-14" target="Etnpo339rv5FMcLpuCDI-17" edge="1">
          <mxGeometry relative="1" as="geometry">
            <Array as="points">
              <mxPoint x="160" y="590" />
            </Array>
          </mxGeometry>
        </mxCell>
        <mxCell id="Etnpo339rv5FMcLpuCDI-19" value="Đủ tiền" style="edgeLabel;html=1;align=center;verticalAlign=middle;resizable=0;points=[];" parent="Etnpo339rv5FMcLpuCDI-18" vertex="1" connectable="0">
          <mxGeometry x="-0.1382" relative="1" as="geometry">
            <mxPoint y="-3" as="offset" />
          </mxGeometry>
        </mxCell>
        <mxCell id="Etnpo339rv5FMcLpuCDI-20" style="edgeStyle=orthogonalEdgeStyle;rounded=0;orthogonalLoop=1;jettySize=auto;html=1;exitX=1;exitY=0.5;exitDx=0;exitDy=0;entryX=0.5;entryY=0;entryDx=0;entryDy=0;" parent="1" source="Etnpo339rv5FMcLpuCDI-14" edge="1" target="Etnpo339rv5FMcLpuCDI-21">
          <mxGeometry relative="1" as="geometry">
            <mxPoint x="480" y="620" as="targetPoint" />
            <mxPoint x="340" y="650" as="sourcePoint" />
            <Array as="points" />
          </mxGeometry>
        </mxCell>
        <mxCell id="Etnpo339rv5FMcLpuCDI-22" value="Thiếu tiền" style="edgeLabel;html=1;align=center;verticalAlign=middle;resizable=0;points=[];" parent="Etnpo339rv5FMcLpuCDI-20" vertex="1" connectable="0">
          <mxGeometry x="-0.4785" y="-3" relative="1" as="geometry">
            <mxPoint x="14" y="27" as="offset" />
          </mxGeometry>
        </mxCell>
        <mxCell id="Etnpo339rv5FMcLpuCDI-14" value="Kiểm tra số tiền" style="rhombus;whiteSpace=wrap;html=1;" parent="1" vertex="1">
          <mxGeometry x="200" y="540" width="100" height="100" as="geometry" />
        </mxCell>
        <mxCell id="fJU-cxcKnrM6-4Va9FaJ-1" style="edgeStyle=orthogonalEdgeStyle;rounded=0;orthogonalLoop=1;jettySize=auto;html=1;exitX=0.5;exitY=0;exitDx=0;exitDy=0;" edge="1" parent="1" source="Etnpo339rv5FMcLpuCDI-17">
          <mxGeometry relative="1" as="geometry">
            <mxPoint x="230" y="810" as="targetPoint" />
            <Array as="points">
              <mxPoint x="230" y="700" />
            </Array>
          </mxGeometry>
        </mxCell>
        <mxCell id="fJU-cxcKnrM6-4Va9FaJ-7" value="Thừa tiền" style="edgeLabel;html=1;align=center;verticalAlign=middle;resizable=0;points=[];" vertex="1" connectable="0" parent="fJU-cxcKnrM6-4Va9FaJ-1">
          <mxGeometry x="0.1415" y="-2" relative="1" as="geometry">
            <mxPoint as="offset" />
          </mxGeometry>
        </mxCell>
        <mxCell id="fJU-cxcKnrM6-4Va9FaJ-12" style="edgeStyle=orthogonalEdgeStyle;rounded=0;orthogonalLoop=1;jettySize=auto;html=1;exitX=0.5;exitY=1;exitDx=0;exitDy=0;entryX=0;entryY=0.5;entryDx=0;entryDy=0;" edge="1" parent="1" source="Etnpo339rv5FMcLpuCDI-17" target="fJU-cxcKnrM6-4Va9FaJ-10">
          <mxGeometry relative="1" as="geometry" />
        </mxCell>
        <mxCell id="fJU-cxcKnrM6-4Va9FaJ-13" value="Đủ tiền" style="edgeLabel;html=1;align=center;verticalAlign=middle;resizable=0;points=[];" vertex="1" connectable="0" parent="fJU-cxcKnrM6-4Va9FaJ-12">
          <mxGeometry x="-0.1683" y="-3" relative="1" as="geometry">
            <mxPoint y="11" as="offset" />
          </mxGeometry>
        </mxCell>
        <mxCell id="Etnpo339rv5FMcLpuCDI-17" value="Đưa sản phẩm" style="rhombus;whiteSpace=wrap;html=1;direction=south;" parent="1" vertex="1">
          <mxGeometry x="110" y="650" width="100" height="100" as="geometry" />
        </mxCell>
        <mxCell id="fJU-cxcKnrM6-4Va9FaJ-6" style="edgeStyle=orthogonalEdgeStyle;rounded=0;orthogonalLoop=1;jettySize=auto;html=1;exitX=0;exitY=0.5;exitDx=0;exitDy=0;entryX=0.5;entryY=1;entryDx=0;entryDy=0;" edge="1" parent="1" source="Etnpo339rv5FMcLpuCDI-21" target="Etnpo339rv5FMcLpuCDI-14">
          <mxGeometry relative="1" as="geometry" />
        </mxCell>
        <mxCell id="Etnpo339rv5FMcLpuCDI-21" value="Yêu cầu đưa thêm tiền" style="rhombus;whiteSpace=wrap;html=1;" parent="1" vertex="1">
          <mxGeometry x="290" y="650" width="100" height="100" as="geometry" />
        </mxCell>
        <mxCell id="fJU-cxcKnrM6-4Va9FaJ-11" style="edgeStyle=orthogonalEdgeStyle;rounded=0;orthogonalLoop=1;jettySize=auto;html=1;exitX=0;exitY=0.5;exitDx=0;exitDy=0;entryX=0.5;entryY=0;entryDx=0;entryDy=0;" edge="1" parent="1" source="fJU-cxcKnrM6-4Va9FaJ-8" target="fJU-cxcKnrM6-4Va9FaJ-10">
          <mxGeometry relative="1" as="geometry" />
        </mxCell>
        <mxCell id="fJU-cxcKnrM6-4Va9FaJ-8" value="Trả lại tiền" style="rhombus;whiteSpace=wrap;html=1;" vertex="1" parent="1">
          <mxGeometry x="190" y="810" width="80" height="80" as="geometry" />
        </mxCell>
        <mxCell id="fJU-cxcKnrM6-4Va9FaJ-17" style="edgeStyle=orthogonalEdgeStyle;rounded=0;orthogonalLoop=1;jettySize=auto;html=1;exitX=0.5;exitY=1;exitDx=0;exitDy=0;" edge="1" parent="1" source="fJU-cxcKnrM6-4Va9FaJ-10">
          <mxGeometry relative="1" as="geometry">
            <mxPoint x="170" y="1050" as="targetPoint" />
          </mxGeometry>
        </mxCell>
        <mxCell id="fJU-cxcKnrM6-4Va9FaJ-10" value="Đẩy sản phẩm ra" style="rhombus;whiteSpace=wrap;html=1;" vertex="1" parent="1">
          <mxGeometry x="115" y="910" width="110" height="110" as="geometry" />
        </mxCell>
        <mxCell id="fJU-cxcKnrM6-4Va9FaJ-20" style="edgeStyle=orthogonalEdgeStyle;rounded=0;orthogonalLoop=1;jettySize=auto;html=1;exitX=1;exitY=0.5;exitDx=0;exitDy=0;entryX=1;entryY=0.5;entryDx=0;entryDy=0;" edge="1" parent="1" source="fJU-cxcKnrM6-4Va9FaJ-19" target="Etnpo339rv5FMcLpuCDI-1">
          <mxGeometry relative="1" as="geometry">
            <Array as="points">
              <mxPoint x="640" y="1090" />
              <mxPoint x="640" y="50" />
            </Array>
          </mxGeometry>
        </mxCell>
        <mxCell id="fJU-cxcKnrM6-4Va9FaJ-19" value="Kết thúc" style="ellipse;whiteSpace=wrap;html=1;" vertex="1" parent="1">
          <mxGeometry x="105" y="1050" width="130" height="80" as="geometry" />
        </mxCell>
      </root>
    </mxGraphModel>
  </diagram>
</mxfile>
